<svg xmlns="http://www.w3.org/2000/svg" version="1.1" xmlns:xlink="http://www.w3.org/1999/xlink" width="512" height="512" x="0" y="0" viewBox="0 0 24 24" style="enable-background:new 0 0 512 512" xml:space="preserve" class=""><g transform="matrix(1.0899999999999994,0,0,1.0899999999999994,-1.080000042915339,-1.0787582284212078)"><path fill="#b2ccd6" d="M18 5.91a.49.49 0 0 0-.13-.26 4.7 4.7 0 0 0-2.64-1.23 6.78 6.78 0 0 0 .77-1.8.5.5 0 0 0-.58-.62 9.18 9.18 0 0 0-2.72.89c.1-.55.21-1 .28-1.28a.5.5 0 0 0-1-.25c-.09.35-.25 1-.36 1.74A8.3 8.3 0 0 0 8.58 2a.5.5 0 0 0-.58.62 6.78 6.78 0 0 0 .77 1.79 4.7 4.7 0 0 0-2.62 1.24.49.49 0 0 0-.15.26 9.34 9.34 0 0 0-4 7.59A9.77 9.77 0 0 0 12 23a9.77 9.77 0 0 0 10-9.5 9.34 9.34 0 0 0-4-7.59zm-8.1-.42a.5.5 0 0 0 .39-.9 3.24 3.24 0 0 1-1-1.4c1.11.3 2.23.81 2.23 1.32a.46.46 0 0 0 0 .06v.44a.5.5 0 0 0 1 0v-.56c.09-.49 1.15-1 2.22-1.26a3.24 3.24 0 0 1-1 1.4.5.5 0 0 0 .39.9 3.21 3.21 0 0 1 2.5.46 3.28 3.28 0 0 1-2.9.1.5.5 0 0 0-.69.29A2.82 2.82 0 0 1 12 8a2.82 2.82 0 0 1-1-1.62.5.5 0 0 0-.28-.3.5.5 0 0 0-.19 0 .49.49 0 0 0-.22.05 3.28 3.28 0 0 1-2.9-.1 3.21 3.21 0 0 1 2.47-.54zm0 14.74a.5.5 0 0 1-.47.34h-.16a8.11 8.11 0 0 1-3.08-1.92.5.5 0 0 1 .71-.71 7.1 7.1 0 0 0 2.7 1.68.5.5 0 0 1 .27.61z" opacity="1" data-original="#303c42" class=""></path></g></svg>